<?xml version="1.0" standalone="no"?>
<!DOCTYPE svg PUBLIC "-//W3C//DTD SVG 20010904//EN"
 "http://www.w3.org/TR/2001/REC-SVG-20010904/DTD/svg10.dtd">
<svg version="1.0" xmlns="http://www.w3.org/2000/svg"
 width="6325.000000pt" height="3953.000000pt" viewBox="0 0 6325.000000 3953.000000"
 preserveAspectRatio="xMidYMid meet">

<g transform="translate(0.000000,3953.000000) scale(0.100000,-0.100000)"
fill="#000000" stroke="none">
<path d="M22131 34939 c-116 -25 -231 -67 -445 -164 -91 -42 -193 -83 -228
-92 -88 -23 -229 -21 -353 6 -141 31 -263 37 -347 17 -197 -46 -365 -173 -502
-379 -31 -47 -115 -198 -185 -335 -134 -260 -164 -310 -294 -482 -146 -193
-189 -312 -189 -520 0 -189 39 -314 163 -516 88 -143 111 -239 124 -514 15
-307 42 -373 244 -584 155 -162 189 -216 198 -316 l6 -61 41 7 c124 20 245 85
356 190 94 91 141 151 241 310 l67 106 -23 57 c-41 99 -58 212 -52 331 8 150
46 253 131 347 167 186 465 215 655 63 21 -16 40 -27 43 -25 2 2 78 23 169 46
90 22 193 55 229 72 116 55 205 169 301 387 76 174 182 311 274 355 49 23 133
35 244 35 150 0 250 35 411 143 41 28 96 59 123 69 103 39 238 32 382 -20 39
-14 95 -31 125 -38 51 -12 58 -11 93 9 48 27 92 92 117 175 36 116 22 206 -56
374 -38 82 -47 111 -55 195 -6 54 -17 120 -26 147 -30 93 -125 169 -254 202
-54 14 -98 16 -286 10 -135 -3 -242 -2 -274 4 -78 15 -173 63 -248 125 -36 30
-93 77 -126 105 -74 62 -187 122 -285 151 -112 32 -377 37 -509 8z"/>
<path d="M23527 33035 c-49 -19 -91 -47 -150 -104 -66 -63 -89 -111 -95 -196
-3 -61 -1 -74 20 -105 38 -56 77 -70 196 -70 57 0 145 -5 197 -11 68 -8 107
-8 147 0 105 22 171 108 171 226 0 114 -64 201 -182 247 -72 28 -246 35 -304
13z"/>
<path d="M23620 32389 c-135 -54 -216 -336 -151 -530 69 -208 237 -218 336
-21 128 257 5 626 -185 551z"/>
<path d="M21280 32239 c-119 -32 -143 -54 -121 -112 16 -42 55 -52 121 -31 53
16 158 22 178 10 6 -3 -9 -34 -33 -70 -75 -112 -90 -162 -90 -306 0 -178 21
-230 95 -230 31 0 43 5 55 24 14 22 15 30 1 78 -24 89 -27 125 -16 190 19 103
78 193 178 271 19 14 23 26 20 60 -3 40 -6 44 -56 71 -30 15 -77 35 -105 42
-59 16 -174 17 -227 3z"/>
<path d="M19735 30014 c-118 -18 -214 -48 -298 -92 -72 -37 -171 -118 -162
-132 3 -5 0 -12 -6 -16 -8 -5 -10 -2 -4 7 11 20 -127 -124 -187 -196 -28 -33
-64 -73 -82 -89 -17 -15 -24 -25 -16 -21 8 4 -2 -7 -23 -25 -20 -17 -35 -36
-31 -41 3 -5 0 -8 -8 -7 -7 2 -12 -3 -10 -10 1 -8 -2 -11 -7 -7 -6 3 -18 -7
-28 -22 -10 -15 -52 -61 -93 -103 -41 -41 -99 -102 -129 -135 -29 -33 -68 -76
-85 -95 -18 -19 -67 -73 -110 -120 -43 -47 -97 -105 -119 -129 -23 -24 -35
-40 -27 -36 8 3 6 -1 -5 -10 -11 -9 -19 -21 -17 -26 1 -5 -4 -8 -10 -7 -7 2
-12 -3 -10 -10 1 -6 -1 -11 -5 -10 -10 3 -73 -58 -73 -71 0 -11 -58 -33 -140
-56 -30 -8 -86 -24 -125 -36 -38 -11 -80 -23 -92 -26 -13 -3 -23 -10 -23 -15
0 -5 -4 -7 -9 -3 -5 3 -12 1 -15 -4 -3 -4 -18 -11 -33 -14 -16 -3 -41 -11 -58
-18 -16 -7 -37 -14 -46 -15 -9 -2 -46 -17 -82 -34 -36 -16 -70 -30 -76 -30 -6
0 -11 -5 -11 -10 0 -6 -3 -9 -7 -8 -12 4 -123 -43 -123 -52 0 -5 -17 -14 -37
-21 -21 -6 -56 -26 -78 -43 -21 -17 -36 -25 -32 -18 5 6 6 12 3 12 -2 0 -11
-6 -18 -12 -8 -7 -40 -26 -72 -43 -32 -16 -81 -47 -109 -67 -29 -21 -82 -56
-120 -78 -40 -25 -65 -46 -61 -52 4 -6 3 -8 -2 -5 -11 6 -148 -92 -181 -130
-13 -14 -23 -23 -23 -19 0 7 -45 -32 -118 -101 -25 -24 -47 -43 -50 -43 -6 0
-62 -57 -197 -201 -33 -35 -76 -84 -95 -109 -19 -24 -44 -53 -55 -65 -37 -37
-74 -92 -67 -100 4 -3 3 -5 -3 -3 -5 2 -11 0 -13 -4 -2 -4 -17 -22 -33 -39
-17 -18 -37 -46 -46 -63 -9 -17 -19 -33 -22 -36 -3 -3 -13 -14 -21 -24 -13
-18 -13 -19 0 -12 8 4 4 -1 -10 -13 -14 -11 -25 -24 -25 -28 0 -5 -6 -15 -13
-23 -27 -32 -60 -89 -54 -94 3 -3 0 -6 -6 -6 -11 0 -58 -80 -53 -89 2 -2 -2
-7 -7 -10 -18 -11 -82 -137 -75 -146 5 -4 3 -5 -3 -2 -10 6 -51 -70 -46 -86 1
-5 -2 -6 -7 -3 -9 6 -37 -61 -33 -77 1 -5 -2 -6 -7 -3 -5 3 -14 -9 -21 -27 -7
-17 -20 -48 -31 -68 -10 -20 -16 -39 -12 -43 3 -3 1 -6 -5 -6 -7 0 -12 -6 -12
-12 0 -7 -7 -26 -16 -43 -32 -61 -75 -178 -70 -192 3 -8 1 -11 -4 -8 -10 6
-17 -5 -23 -40 -2 -11 -11 -38 -21 -60 -20 -44 -36 -92 -41 -115 -1 -8 -5 -22
-8 -30 -20 -50 -39 -122 -33 -127 3 -4 0 -13 -7 -22 -12 -14 -27 -57 -43 -120
-2 -9 -12 -50 -23 -91 -30 -116 -81 -322 -86 -345 -2 -11 -4 -20 -5 -20 -2 0
-9 -30 -15 -60 -7 -38 -14 -67 -20 -85 -3 -10 -8 -27 -10 -37 -2 -10 -11 -51
-20 -91 -9 -40 -14 -76 -11 -79 3 -4 2 -11 -3 -17 -5 -6 -16 -47 -25 -91 -9
-44 -19 -91 -22 -105 -16 -69 -26 -120 -34 -165 -5 -27 -22 -120 -39 -205 -17
-85 -29 -161 -26 -167 2 -7 0 -13 -6 -13 -6 0 -9 -12 -8 -27 1 -16 -3 -48 -10
-72 -7 -23 -10 -46 -7 -49 3 -3 2 -10 -4 -16 -5 -7 -11 -32 -14 -56 -3 -25 -7
-54 -9 -65 -13 -51 -17 -73 -22 -105 -2 -19 -7 -46 -10 -60 -17 -87 -29 -143
-30 -150 -1 -3 -7 -31 -14 -62 -7 -32 -10 -62 -7 -67 4 -5 2 -11 -3 -13 -5 -1
-11 -21 -14 -43 -3 -22 -10 -67 -16 -99 -6 -32 -8 -63 -4 -69 3 -6 1 -7 -5 -3
-8 5 -12 -3 -13 -23 -1 -17 -2 -34 -4 -38 -7 -27 -18 -91 -20 -113 -1 -14 -4
-32 -7 -40 -6 -16 -30 -154 -34 -199 -1 -14 -3 -26 -4 -26 -1 0 -4 -13 -6 -30
-2 -16 -9 -50 -14 -75 -6 -25 -12 -69 -15 -98 -2 -28 -6 -56 -9 -60 -6 -10
-20 -118 -20 -159 0 -17 -4 -29 -8 -27 -4 3 -9 -10 -9 -28 -2 -41 -6 -73 -24
-193 -1 -11 -6 -43 -9 -71 -4 -28 -8 -60 -11 -72 -2 -13 1 -22 8 -22 9 0 9 -2
0 -8 -12 -7 -28 -91 -37 -193 -3 -30 -7 -62 -10 -70 -4 -13 -13 -90 -22 -189
-2 -25 -6 -61 -8 -80 -2 -19 -7 -62 -10 -95 -15 -143 -25 -225 -32 -268 -3
-21 -1 -27 8 -21 11 6 11 5 0 -8 -6 -8 -12 -26 -13 -39 0 -13 -2 -46 -5 -74
-3 -27 -6 -75 -8 -107 -2 -31 -6 -60 -9 -65 -3 -4 -8 -57 -11 -118 -3 -60 -8
-123 -11 -140 -3 -16 -7 -77 -10 -135 -3 -58 -7 -125 -10 -150 -2 -25 -7 -88
-10 -140 -3 -52 -8 -131 -11 -175 -14 -197 -21 -465 -25 -915 -5 -515 0 -1142
9 -1137 4 3 6 -50 5 -116 -1 -85 2 -124 10 -129 9 -6 9 -8 0 -8 -12 0 -11
-223 3 -435 4 -55 8 -129 9 -165 4 -120 2 -113 33 -108 l27 4 0 -216 c0 -214
3 -243 46 -470 95 -493 321 -996 662 -1469 l60 -84 2 -431 c2 -421 20 -803 45
-962 6 -38 22 -103 36 -144 72 -213 235 -336 524 -394 104 -21 676 -72 1069
-96 l165 -10 229 -237 c126 -131 341 -349 478 -484 l249 -246 -67 -6 c-38 -4
-102 -7 -143 -7 -41 0 -124 -5 -185 -10 -146 -14 -194 -34 -700 -290 -549
-277 -714 -332 -1035 -346 -230 -10 -483 21 -855 106 -430 98 -498 113 -633
136 -370 62 -713 47 -986 -46 -120 -40 -191 -73 -356 -164 -221 -121 -303
-153 -505 -194 -67 -14 -163 -16 -610 -17 -453 -1 -544 -3 -628 -18 -54 -10
-114 -24 -134 -32 -31 -13 -76 -14 -347 -4 -526 19 -681 5 -829 -73 -219 -116
-339 -400 -362 -858 -8 -150 5 -363 45 -720 42 -379 48 -478 60 -915 31 -1165
86 -1567 252 -1850 171 -291 438 -485 758 -550 73 -15 118 -17 330 -11 135 4
288 11 340 17 310 34 445 176 444 464 -1 134 -13 187 -99 425 -104 287 -105
296 -116 655 -4 171 -13 362 -19 425 -5 63 -10 140 -9 170 l0 55 35 -95 c19
-52 64 -155 100 -228 77 -155 134 -223 205 -243 62 -17 196 -13 394 10 94 11
204 23 245 26 193 17 363 67 675 198 353 148 497 194 680 218 170 22 399 -4
655 -75 69 -19 193 -53 275 -76 782 -217 1434 -261 2087 -140 245 45 401 87
853 229 533 169 844 237 1320 291 334 37 527 27 1175 -65 501 -71 644 -85 848
-85 252 0 600 31 812 71 428 83 662 266 991 779 107 167 151 262 189 414 90
355 56 873 -96 1479 -185 743 -537 1655 -1049 2725 -59 123 -104 226 -101 229
2 3 323 70 713 149 809 164 1143 233 1159 239 7 2 -10 26 -36 53 -58 60 -118
161 -164 274 -80 200 -110 407 -104 726 l3 213 -60 62 c-126 129 -139 221 -85
587 80 544 141 738 267 852 23 20 85 62 140 93 178 104 225 139 322 235 93 92
198 216 248 291 23 35 24 45 43 480 11 244 25 529 30 633 6 104 9 190 7 193
-3 2 -526 -21 -1163 -52 -638 -30 -1176 -55 -1196 -55 l-37 0 13 38 c20 55 39
204 32 247 -4 21 -9 81 -11 134 -3 53 -8 112 -12 131 -9 48 -10 72 -12 201 0
60 -4 108 -8 106 -5 -3 -7 52 -5 121 3 102 8 143 29 207 14 44 26 85 27 90 2
6 6 17 9 25 26 67 125 391 130 425 1 11 6 25 9 31 4 6 12 31 18 55 6 24 12 51
14 59 2 8 14 47 26 87 12 40 19 76 16 82 -3 5 -2 11 3 13 6 1 12 14 15 28 2
14 7 32 10 40 5 12 -16 26 -81 59 -76 37 -123 62 -300 162 -18 10 -128 77
-243 149 -116 71 -215 130 -220 130 -4 0 -10 4 -12 8 -1 5 -61 46 -133 92 -71
46 -141 92 -155 103 -68 52 -701 463 -705 457 -2 -3 -13 -51 -24 -106 -50
-247 -69 -509 -42 -611 7 -29 26 -71 42 -93 33 -45 38 -61 12 -38 -10 9 -72
44 -138 78 -66 34 -147 78 -180 98 -104 62 -238 144 -292 179 -28 18 -56 33
-62 33 -6 0 -11 4 -11 8 0 9 -56 44 -66 42 -4 -1 -10 3 -13 8 -8 13 -139 102
-150 102 -5 0 -11 4 -13 8 -5 13 -100 75 -114 75 -7 0 -11 4 -8 8 5 9 -30 31
-40 24 -3 -3 -4 -2 -1 2 6 7 -36 39 -47 35 -5 -1 -8 2 -8 7 0 5 -24 24 -52 42
-29 19 -57 39 -63 45 -29 33 -177 134 -187 128 -6 -4 -8 -3 -5 3 4 6 0 16 -8
23 -8 7 -15 9 -15 4 0 -5 -8 1 -18 12 -23 28 -249 204 -262 204 -5 0 -10 4
-10 8 0 5 -57 53 -126 108 -69 54 -135 107 -146 116 -11 10 -25 15 -31 11 -5
-3 -7 -1 -3 5 3 6 -6 19 -22 30 l-27 20 -42 -36 c-120 -105 -308 -214 -483
-280 -48 -18 -94 -34 -110 -37 -65 -15 -128 -30 -140 -33 -24 -8 -399 -9 -395
-1 3 3 -16 9 -41 13 -65 8 -186 52 -279 99 -44 23 -82 44 -85 47 -14 16 -116
83 -127 83 -6 0 -11 3 -10 7 1 4 -34 43 -78 86 -142 140 -272 323 -374 524
-30 58 -57 110 -60 115 -4 6 -20 42 -36 82 -16 41 -32 70 -38 66 -6 -3 -7 -1
-3 5 6 10 0 29 -25 87 -5 11 -23 61 -39 110 -17 50 -34 97 -37 105 -3 8 -7 21
-9 28 -1 8 -15 55 -29 105 -15 51 -28 97 -30 102 -1 6 -3 12 -4 15 -4 9 -41
164 -46 190 -3 14 -12 66 -21 115 -9 50 -18 97 -21 105 -3 8 -7 31 -9 50 -2
19 -10 98 -19 175 -8 77 -17 165 -20 195 -5 69 -6 614 -1 632 3 7 8 58 12 113
7 113 11 155 19 205 3 19 7 53 9 75 2 22 6 47 9 55 3 8 15 61 27 116 12 56 28
123 36 150 10 34 11 50 3 54 -7 5 -6 9 4 13 8 3 18 21 22 39 4 18 14 46 21 63
7 16 27 66 44 110 30 77 140 315 150 325 7 7 26 38 46 75 9 17 36 58 60 93 25
35 41 68 38 74 -4 6 -2 8 3 5 6 -4 18 4 26 16 8 13 43 58 77 100 36 45 58 82
54 88 -4 7 -3 9 3 6 6 -4 60 42 119 101 111 110 234 223 234 215 0 -3 17 9 38
25 34 27 110 79 232 157 108 69 379 187 540 235 41 12 82 25 90 28 8 3 18 5
21 4 4 -1 22 3 40 9 19 6 45 12 59 14 14 2 70 12 125 21 112 18 451 27 531 13
104 -18 229 -41 239 -43 62 -16 109 -31 153 -47 30 -11 58 -16 64 -13 7 4 8 2
4 -4 -6 -11 12 -17 37 -13 4 0 7 -3 7 -8 0 -7 17 -15 60 -26 3 0 21 -11 40
-23 19 -12 39 -22 43 -22 5 0 23 -11 41 -25 18 -14 36 -25 40 -25 4 0 22 -11
40 -25 18 -14 38 -25 44 -25 6 0 12 -4 14 -8 4 -11 135 -122 143 -122 9 0 21
-13 95 -100 35 -41 87 -100 115 -130 108 -115 174 -187 235 -255 34 -38 78
-86 97 -105 18 -19 93 -102 165 -185 73 -82 136 -149 140 -148 4 2 7 -1 5 -6
-1 -5 21 -35 50 -67 28 -33 69 -79 90 -104 84 -98 116 -129 126 -123 6 3 7 1
3 -5 -4 -6 4 -24 17 -39 108 -124 255 -294 371 -428 76 -88 143 -159 148 -157
5 1 7 -2 3 -7 -3 -6 4 -15 16 -21 11 -7 18 -14 15 -17 -3 -3 25 -41 62 -83 37
-43 90 -106 119 -141 29 -35 71 -84 95 -109 24 -25 66 -72 93 -105 28 -32 65
-73 83 -91 17 -18 32 -36 32 -39 0 -11 212 -255 221 -255 5 0 9 -5 9 -11 0 -8
136 -172 190 -230 8 -8 33 -37 55 -64 62 -76 194 -231 230 -270 11 -11 31 -34
45 -50 l25 -28 -39 26 c-134 89 -329 42 -578 -140 l-68 -49 328 -242 c180
-133 408 -301 507 -372 99 -71 185 -134 191 -139 6 -5 51 -38 100 -74 85 -64
112 -77 83 -40 -9 11 -10 14 -1 9 7 -4 14 -2 16 6 7 26 37 153 41 176 2 13 7
32 10 43 4 10 8 31 10 47 2 15 4 27 5 27 4 0 99 437 104 479 2 11 6 28 9 36 5
13 39 181 51 253 3 15 7 35 10 45 3 9 8 33 10 52 3 19 10 53 15 75 5 22 12 58
14 80 2 22 8 49 12 59 5 11 9 43 9 72 1 28 4 50 7 48 6 -3 33 128 45 211 1 11
7 42 12 69 6 27 9 59 7 72 -1 13 1 24 5 24 4 0 7 6 8 13 0 6 16 104 36 217 19
113 37 226 39 251 2 25 6 50 9 55 3 5 9 34 13 64 12 82 13 88 29 180 9 47 18
101 20 120 3 19 15 91 26 159 11 69 19 130 16 137 -3 7 -1 14 3 16 5 2 11 34
15 72 3 38 8 71 10 75 2 3 7 31 10 61 4 30 11 82 15 115 5 33 9 67 9 75 0 8 6
56 12 105 6 50 10 114 9 142 -2 29 0 56 4 60 10 9 9 193 0 193 -5 0 -9 28 -9
63 -3 134 -20 240 -70 430 -22 82 -84 228 -95 221 -5 -3 -6 1 -4 8 10 25 -137
234 -156 222 -5 -3 -8 0 -7 8 2 7 -3 12 -10 10 -8 -1 -11 2 -8 7 10 15 -111
120 -229 199 -38 26 -71 50 -73 55 -2 4 -10 7 -17 7 -7 0 -15 3 -17 8 -1 4
-30 25 -63 47 -136 90 -247 189 -319 285 -22 30 -44 57 -48 58 -5 2 -8 10 -8
17 0 7 -3 15 -7 17 -10 4 -63 110 -63 126 0 6 -5 12 -11 12 -5 0 -8 4 -4 9 3
5 1 20 -4 33 -8 21 -19 50 -22 63 -25 107 -28 132 -24 265 4 160 8 207 18 217
13 12 6 68 -13 110 -42 95 -175 199 -365 289 -51 24 -97 44 -102 44 -6 0 -49
-100 -95 -222 l-85 -221 -84 2 c-106 2 -335 26 -437 45 -42 8 -113 19 -157 26
-110 17 -395 90 -545 140 -161 54 -441 168 -527 215 -1 1 12 37 28 81 17 43
55 141 84 217 l53 137 -56 -1 c-32 -1 -97 -7 -147 -15z m2255 -838 c0 -2 -7
-7 -16 -10 -8 -3 -12 -2 -9 4 6 10 25 14 25 6z m-1123 -258 c-3 -8 -6 -5 -6 6
-1 11 2 17 5 13 3 -3 4 -12 1 -19z m-1306 -905 c13 -16 12 -17 -3 -4 -10 7
-18 15 -18 17 0 8 8 3 21 -13z m86 -108 c0 -8 -4 -12 -9 -9 -5 3 -6 10 -3 15
9 13 12 11 12 -6z m1418 -254 c3 -5 2 -12 -3 -15 -5 -3 -9 1 -9 9 0 17 3 19
12 6z m-1450 -11 c3 -6 -1 -7 -9 -4 -18 7 -21 14 -7 14 6 0 13 -4 16 -10z
m232 -135 c0 -8 -4 -12 -9 -9 -5 3 -6 10 -3 15 9 13 12 11 12 -6z m1230 -87
c-3 -8 -6 -5 -6 6 -1 11 2 17 5 13 3 -3 4 -12 1 -19z m27 -168 c-6 -6 -10 -3
-10 10 0 13 4 16 10 10 7 -7 7 -13 0 -20z m160 -2266 c3 -8 2 -12 -4 -9 -6 3
-10 10 -10 16 0 14 7 11 14 -7z m-474 -4138 c0 -2 -7 -7 -16 -10 -8 -3 -12 -2
-9 4 6 10 25 14 25 6z m-843 -1301 c0 -8 -4 -12 -9 -9 -5 3 -6 10 -3 15 9 13
12 11 12 -6z m90 -397 c-3 -8 -6 -5 -6 6 -1 11 2 17 5 13 3 -3 4 -12 1 -19z
m-210 -677 c0 -11 -5 -18 -9 -15 -4 3 -5 11 -1 19 7 21 12 19 10 -4z m-3723
-23 c-3 -4 -11 -5 -19 -1 -21 7 -19 12 4 10 11 0 18 -5 15 -9z m373 -14 c-3
-3 -12 -4 -19 -1 -8 3 -5 6 6 6 11 1 17 -2 13 -5z m1770 -307 c0 -8 -6 -14
-14 -14 -9 0 -10 4 -2 14 6 7 12 13 14 13 1 0 2 -6 2 -13z m1730 -419 c-3 -7
-5 -2 -5 12 0 14 2 19 5 13 2 -7 2 -19 0 -25z m-110 -673 c0 -8 -4 -12 -9 -9
-5 3 -6 10 -3 15 9 13 12 11 12 -6z m197 -345 c-6 -6 -10 -3 -10 10 0 13 4 16
10 10 7 -7 7 -13 0 -20z"/>
<path d="M42855 29720 c0 -52 -7 -71 -64 -182 -88 -169 -148 -271 -339 -573
-291 -458 -331 -534 -547 -1038 -69 -161 -129 -297 -133 -304 -6 -9 -66 8
-227 62 -137 46 -275 85 -365 103 -108 22 -146 33 -148 45 -13 65 74 370 148
518 130 260 264 351 431 292 47 -17 49 -17 76 3 24 18 35 46 76 183 70 238
133 358 209 397 45 24 111 20 172 -10 29 -14 60 -26 69 -26 15 0 67 54 67 70
0 32 -25 62 -72 87 -47 24 -64 28 -143 28 -81 0 -96 -3 -150 -32 -80 -41 -167
-134 -208 -220 -17 -37 -48 -124 -67 -193 l-36 -124 -80 -1 c-70 -1 -90 -5
-147 -33 -83 -41 -155 -106 -230 -206 -65 -89 -153 -261 -191 -376 -29 -87
-66 -263 -66 -312 l0 -33 -292 0 c-259 -1 -310 -4 -438 -24 -208 -34 -186 -40
-224 60 -93 246 -252 428 -461 529 -116 56 -184 74 -275 73 -138 0 -240 -85
-240 -198 0 -65 48 -166 116 -243 25 -29 44 -55 42 -57 -3 -3 -31 0 -64 7 -32
6 -113 11 -179 10 -143 0 -240 -23 -348 -79 -232 -122 -394 -432 -279 -534 17
-16 47 -31 65 -34 19 -4 117 3 219 14 101 12 197 21 212 21 27 0 26 -2 -22
-39 -97 -77 -151 -164 -155 -250 l-2 -51 -70 -25 c-148 -52 -647 -205 -845
-259 -160 -43 -489 -104 -816 -151 -171 -25 -338 -54 -370 -65 -79 -28 -130
-65 -161 -118 -94 -160 -58 -482 77 -691 22 -34 40 -66 40 -70 0 -5 -13 -37
-30 -72 -98 -211 -143 -655 -81 -810 26 -68 89 -142 142 -169 22 -12 58 -20
86 -20 47 0 51 2 124 78 130 132 210 249 270 395 78 189 92 348 44 512 -14 50
-35 105 -46 123 -26 44 -25 45 18 16 68 -46 134 -59 293 -58 80 0 171 6 203
12 l59 12 57 -44 c65 -51 156 -146 201 -211 28 -41 86 -165 96 -204 2 -9 8
-36 15 -61 6 -26 9 -94 7 -160 -4 -96 -10 -130 -36 -205 -35 -102 -35 -104 5
-287 47 -215 40 -400 -22 -552 -27 -67 -27 -70 -9 -84 102 -78 295 -87 514
-25 106 30 197 34 293 13 63 -15 152 -4 208 26 23 12 29 11 39 -1 7 -8 27 -15
46 -15 43 0 196 114 310 232 l82 83 43 -13 c50 -15 197 -21 249 -9 43 10 48
11 83 25 16 7 31 12 34 12 17 0 128 90 159 129 20 25 33 37 30 25 -9 -30 10
-154 35 -219 29 -77 118 -171 203 -215 43 -21 74 -31 91 -28 33 7 58 -25 111
-136 33 -69 39 -92 42 -166 5 -106 -19 -172 -81 -225 -64 -55 -122 -70 -264
-69 -105 1 -123 -1 -127 -15 -3 -9 -10 -43 -17 -76 -15 -78 -72 -242 -111
-319 -83 -165 -221 -334 -357 -437 -247 -185 -605 -252 -876 -164 -54 18 -81
22 -98 16 -13 -5 -49 -44 -81 -87 -33 -42 -105 -129 -161 -193 -286 -325 -552
-520 -853 -625 -128 -44 -227 -63 -402 -76 -277 -21 -365 -69 -469 -256 -114
-206 -137 -244 -188 -307 -65 -81 -145 -146 -231 -189 -73 -36 -83 -52 -137
-206 -46 -133 -77 -185 -159 -268 -127 -127 -280 -192 -471 -201 -239 -11
-485 63 -865 259 -658 340 -681 350 -830 350 -112 0 -185 -24 -330 -108 -63
-37 -139 -78 -167 -90 l-53 -24 0 23 c0 27 -23 63 -50 77 -25 14 -56 -2 -135
-69 -32 -28 -63 -51 -68 -51 -23 0 -134 33 -184 55 -128 57 -285 186 -403 330
-31 39 -96 126 -145 195 -136 193 -207 280 -290 358 -145 135 -258 186 -508
227 -33 5 -36 8 -27 25 16 29 12 45 -16 74 -41 40 -71 34 -143 -28 l-62 -54
-127 -4 c-253 -8 -473 13 -608 57 -312 105 -482 356 -547 810 l-13 89 -124 1
c-102 1 -136 5 -184 23 -74 27 -140 70 -192 122 -21 22 -42 40 -45 40 -8 0
-36 -154 -44 -240 -14 -151 37 -368 117 -505 48 -81 160 -202 230 -246 57 -37
58 -41 22 -182 -21 -83 -25 -119 -22 -193 3 -81 8 -100 40 -165 75 -151 199
-264 393 -359 181 -89 321 -125 842 -214 334 -58 372 -66 598 -122 170 -43
252 -81 325 -154 98 -97 164 -215 294 -527 225 -542 309 -614 766 -653 233
-20 375 -57 519 -136 157 -86 265 -180 529 -461 104 -112 230 -239 278 -284
204 -186 419 -295 701 -355 249 -53 319 -103 533 -385 175 -230 310 -344 550
-465 171 -85 347 -139 560 -170 76 -11 230 -6 331 10 144 24 257 66 394 147
147 88 290 118 457 98 116 -14 302 -60 345 -85 102 -59 219 -180 237 -244 47
-173 64 -257 101 -510 61 -414 122 -593 261 -769 95 -121 182 -176 421 -272
338 -134 435 -224 598 -548 109 -219 185 -312 295 -363 91 -42 113 -45 505
-78 237 -20 402 -67 613 -175 206 -104 326 -187 682 -470 329 -261 511 -371
665 -401 51 -10 182 -19 360 -24 224 -7 295 -13 355 -28 182 -48 535 -193 706
-292 58 -33 103 -51 149 -59 126 -22 296 -95 412 -177 122 -87 220 -229 243
-353 15 -80 12 -286 -5 -387 -23 -132 -50 -233 -126 -476 -125 -399 -151 -521
-152 -713 -2 -272 63 -448 300 -810 60 -94 125 -197 143 -230 81 -147 159
-230 267 -284 106 -53 241 -65 378 -32 334 80 525 82 674 7 72 -37 105 -69
180 -175 38 -53 84 -110 103 -127 145 -136 434 -167 815 -89 65 13 251 57 413
99 162 41 338 81 390 89 94 13 95 13 107 -8 24 -43 54 -47 159 -19 53 13 105
29 117 35 39 21 263 -14 426 -68 172 -56 354 -160 473 -272 l67 -62 15 23 c56
86 96 226 96 339 0 262 -162 501 -442 649 l-67 36 66 99 c155 231 290 484 382
716 38 97 44 106 64 101 24 -6 93 -73 202 -196 145 -163 171 -192 226 -251 31
-33 83 -100 117 -150 33 -49 89 -124 124 -165 102 -121 295 -308 357 -345 10
-5 33 -22 53 -38 19 -15 39 -27 43 -27 5 0 16 -6 24 -14 23 -21 165 -90 246
-121 139 -52 260 -76 415 -82 170 -6 267 8 415 62 52 19 121 39 153 45 82 16
144 -3 263 -82 375 -246 850 -311 1269 -172 58 19 202 82 320 139 118 57 244
112 280 121 87 23 250 23 415 0 152 -22 351 -18 455 9 210 55 375 181 490 375
54 89 113 156 160 180 61 31 161 42 315 35 169 -8 392 8 501 35 157 39 292
130 373 249 21 31 68 112 105 179 126 235 168 276 397 392 160 81 258 147 295
197 85 114 114 281 79 448 -20 98 -100 253 -184 357 l-70 87 50 94 c82 156
116 278 126 442 14 247 -65 494 -215 672 -50 59 -52 76 -18 211 42 166 51 254
51 492 0 240 -10 316 -49 386 -44 80 -146 97 -211 34 -48 -46 -76 -118 -140
-350 -146 -534 -249 -739 -487 -966 -198 -189 -468 -340 -838 -468 -73 -26
-285 -90 -470 -142 -184 -53 -510 -148 -725 -211 -891 -261 -1302 -360 -1760
-420 -166 -22 -702 -25 -840 -5 -537 77 -922 248 -1330 590 -11 9 -36 29 -55
43 -19 15 -51 41 -70 59 -57 52 -102 92 -165 145 -121 103 -307 285 -491 482
-21 22 -93 99 -160 170 -66 70 -137 146 -158 168 -20 22 -63 90 -95 150 -184
350 -443 710 -809 1124 -154 175 -569 595 -771 781 -62 58 -130 121 -150 140
-47 44 -326 298 -392 355 -57 50 -259 232 -344 309 -44 40 -93 85 -110 100
-280 255 -797 762 -1040 1021 -66 71 -131 140 -145 155 -14 14 -54 60 -90 100
-36 41 -87 100 -115 130 -27 31 -68 78 -90 105 -52 63 -99 119 -105 125 -23
22 -293 371 -340 441 -8 12 -35 50 -60 85 -79 108 -350 535 -350 549 0 3 -17
34 -39 68 -37 60 -93 156 -151 262 -15 28 -49 88 -75 135 -53 94 -150 274
-227 420 -28 52 -83 156 -123 230 -40 74 -90 169 -112 210 -22 41 -66 125 -98
185 -32 61 -72 137 -90 170 -172 321 -208 389 -363 685 -30 58 -58 110 -62
115 -19 26 -81 495 -105 795 -28 364 -36 614 -42 1385 l-6 770 70 105 c92 138
213 299 411 547 473 592 635 860 786 1301 71 208 64 210 -44 7 -215 -402 -373
-657 -531 -856 -101 -128 -317 -343 -424 -424 -145 -109 -331 -192 -526 -233
-220 -48 -537 -54 -618 -13 -78 40 -129 136 -114 214 5 25 9 27 52 27 142 0
403 73 592 166 381 187 644 463 735 771 41 141 33 345 -20 463 -5 12 12 25 71
54 193 95 347 229 407 355 27 58 31 76 31 151 -2 186 -101 315 -180 235 -32
-31 -31 -40 5 -117 23 -48 30 -77 30 -123 -1 -144 -106 -254 -359 -372 -64
-30 -127 -60 -141 -66 -44 -22 -47 -55 -13 -138 57 -139 68 -259 34 -391 -103
-400 -610 -771 -1153 -843 -54 -7 -53 -10 -38 80 5 33 15 155 20 270 18 350
49 575 112 800 33 122 127 367 163 431 58 101 148 182 268 245 42 22 77 43 77
47 0 4 -15 79 -34 167 -63 293 -67 418 -25 720 45 315 121 576 321 1099 54
143 108 294 119 335 27 100 36 236 19 296 -18 64 -25 62 -25 -5z"/>
<path d="M18420 27320 c-448 -83 -833 -270 -1164 -565 -80 -71 -86 -79 -86
-115 0 -29 6 -43 22 -54 42 -30 64 -20 186 85 333 288 737 473 1157 528 61 9
84 16 98 32 20 24 23 79 5 97 -17 17 -105 14 -218 -8z"/>
<path d="M29622 26387 c-26 -31 -232 -1236 -232 -1357 0 -57 14 -78 56 -86 59
-11 68 7 93 191 31 218 102 649 156 941 25 133 45 251 45 263 0 48 -88 84
-118 48z"/>
<path d="M29265 26319 c-10 -16 -235 -1395 -235 -1440 0 -21 7 -45 16 -53 34
-35 96 -28 108 11 6 21 236 1422 236 1441 0 6 -9 21 -20 32 -22 22 -94 28
-105 9z"/>
<path d="M28868 25943 c-41 -47 -269 -1037 -319 -1386 -13 -85 -12 -88 9 -109
25 -26 88 -30 102 -8 5 8 16 57 25 110 59 338 165 824 245 1120 71 260 68 242
40 270 -25 25 -81 27 -102 3z"/>
<path d="M29823 25430 c-26 -10 -31 -29 -73 -236 -57 -279 -94 -393 -161 -491
-18 -26 -108 -124 -199 -218 -327 -335 -511 -609 -616 -919 -41 -120 -30 -156
49 -156 43 0 47 6 81 105 90 261 249 506 531 816 94 104 126 146 136 180 27
94 102 220 172 293 38 39 73 81 77 92 5 12 32 126 60 253 55 248 55 262 4 281
-29 12 -32 12 -61 0z"/>
<path d="M16622 23444 c-17 -12 -22 -25 -22 -58 l0 -44 163 -103 c266 -169
754 -494 1045 -698 282 -197 310 -212 346 -175 9 9 16 32 16 54 0 39 -1 40
-152 148 -479 340 -1318 892 -1357 892 -9 0 -27 -7 -39 -16z"/>
<path d="M30589 23364 c-23 -25 -24 -30 -23 -172 1 -122 6 -163 27 -244 46
-176 137 -341 263 -477 57 -61 71 -71 100 -71 21 0 42 8 54 20 35 35 25 65
-48 148 -176 200 -252 401 -252 667 0 117 -1 125 -22 139 -33 24 -71 20 -99
-10z"/>
<path d="M25883 21336 c-353 -180 -722 -324 -1132 -440 -68 -20 -129 -41 -137
-47 -35 -29 -2 -119 44 -119 27 0 319 84 472 136 280 96 546 207 815 341 192
96 205 106 205 146 0 18 -4 37 -8 43 -9 15 -47 34 -64 33 -7 0 -95 -42 -195
-93z"/>
<path d="M26605 18583 c-11 -2 -98 -7 -194 -11 l-174 -7 -209 -455 c-115 -250
-274 -598 -354 -773 l-144 -318 10 -272 c13 -346 13 -984 0 -1237 -25 -487
-76 -853 -154 -1092 -48 -146 -129 -366 -160 -434 -65 -142 -158 -218 -266
-217 -62 1 -90 12 -132 50 l-26 25 -16 -31 c-26 -49 -76 -100 -119 -122 -40
-21 -120 -23 -173 -5 -19 7 -23 -2 -54 -101 -78 -254 -104 -454 -97 -746 5
-247 14 -301 97 -617 80 -305 93 -378 94 -545 l1 -140 -62 -135 c-81 -179
-111 -254 -172 -443 -87 -271 -177 -649 -227 -962 -55 -345 20 -751 243 -1315
64 -163 205 -476 221 -492 4 -4 57 12 117 35 115 45 293 102 299 96 5 -6 -41
-704 -55 -839 -16 -152 -16 -332 0 -400 53 -219 244 -362 525 -393 188 -20
562 10 1026 83 341 53 589 64 745 31 50 -11 196 -49 325 -84 541 -149 784
-187 1201 -187 232 0 366 11 554 45 203 38 403 105 542 182 203 112 357 453
322 711 -15 113 -54 190 -142 277 -60 60 -90 81 -179 124 -137 66 -301 120
-503 165 -216 48 -347 86 -817 237 l-248 80 0 39 c0 76 -53 96 -137 52 l-58
-29 -170 52 c-93 29 -197 61 -229 70 -36 10 -55 20 -48 24 10 6 10 20 0 62
-20 85 -17 539 5 719 41 328 112 678 187 915 17 55 74 188 125 295 103 215
138 298 197 470 143 415 171 725 100 1110 -46 248 -52 299 -52 419 0 183 26
286 160 636 48 127 102 277 118 335 127 438 198 875 217 1340 3 85 17 227 30
315 50 331 59 446 59 765 1 311 -5 397 -45 635 -105 630 -419 1233 -828 1587
-291 252 -592 384 -951 417 -110 10 -283 13 -325 4z"/>
<path d="M23746 15028 c-31 -43 -19 -454 20 -738 21 -153 52 -300 65 -317 17
-20 76 -16 99 7 22 22 24 45 10 105 -5 22 -21 117 -36 210 -21 141 -27 218
-31 448 -6 309 -6 307 -73 307 -29 0 -43 -6 -54 -22z"/>
<path d="M24340 14980 c-19 -19 -20 -33 -20 -207 0 -191 -11 -426 -31 -655
-13 -152 -8 -168 51 -168 62 0 76 21 84 126 21 271 26 383 32 620 7 258 7 261
-14 282 -28 28 -76 28 -102 2z"/>
<path d="M24868 14973 c-11 -13 -18 -51 -22 -123 -14 -226 -58 -486 -116 -695
-36 -125 -36 -129 -10 -155 25 -25 74 -26 98 -2 19 19 67 186 101 353 27 129
49 296 61 458 8 115 8 138 -5 158 -19 29 -84 32 -107 6z"/>
<path d="M37509 11410 c-9 -5 -47 -56 -85 -112 -90 -136 -228 -273 -364 -363
-58 -38 -108 -74 -112 -80 -4 -5 -8 -24 -8 -42 0 -34 37 -73 70 -73 41 0 236
145 351 259 132 133 249 296 249 347 0 49 -62 88 -101 64z"/>
<path d="M44168 9153 c-26 -30 -31 -62 -14 -88 19 -29 182 -122 331 -188 314
-141 618 -215 974 -238 248 -15 311 -1 311 71 0 58 -26 70 -152 70 -458 0
-948 133 -1319 356 -62 38 -108 43 -131 17z"/>
<path d="M37092 8980 c-29 -12 -46 -53 -73 -181 -29 -135 -31 -342 -5 -439 28
-102 81 -203 142 -270 64 -68 95 -77 134 -36 34 37 29 68 -20 123 -54 61 -96
145 -116 230 -23 98 -14 285 20 417 24 92 25 102 10 123 -12 19 -56 46 -67 42
-1 0 -12 -4 -25 -9z"/>
<path d="M36349 8616 c-156 -151 -344 -217 -697 -245 -97 -8 -117 -13 -138
-32 -28 -26 -31 -65 -7 -98 16 -23 18 -24 129 -17 395 24 683 130 844 313 46
52 51 86 19 127 -35 44 -64 35 -150 -48z"/>
</g>
</svg>
